<svg xmlns="http://www.w3.org/2000/svg" width="12" height="9" viewBox="0 0 12 9">
  <defs>
    <style>
      .cls-1 {
        fill: #fff;
        fill-rule: evenodd;
      }
    </style>
  </defs>
  <path id="形状_1_拷贝_2" data-name="形状 1 拷贝 2" class="cls-1" d="M942.749,1186.81l4.06-3.86,0.008-.01a0.266,0.266,0,0,0,.076-0.09h0a0.527,0.527,0,0,0,.111-0.32v-0.08a0.5,0.5,0,0,0-.106-0.3l0-.01h0a0.971,0.971,0,0,0-.083-0.09l-0.008-.01-4.06-3.86a0.712,0.712,0,0,0-.963,0l-0.007.01a0.616,0.616,0,0,0,.007.9l2.976,2.83h-9.186a0.554,0.554,0,0,0-.568.54v0.08a0.557,0.557,0,0,0,.568.53h9.186l-2.976,2.83a0.62,0.62,0,0,0,0,.91A0.712,0.712,0,0,0,942.749,1186.81Z" transform="translate(-935 -1178)"/>
</svg>